<?xml version="1.0" encoding="UTF-8"?>
<svg width="128" height="128" viewBox="0 0 128 128" xmlns="http://www.w3.org/2000/svg">
  <!-- AZAMANE Game Icon -->
  <!-- Desert background -->
  <rect width="128" height="128" fill="#8B5523"/>
  
  <!-- Sky gradient -->
  <defs>
    <linearGradient id="skyGradient" x1="0%" y1="0%" x2="0%" y2="100%">
      <stop offset="0%" style="stop-color:#2A3F7B;stop-opacity:1" />
      <stop offset="100%" style="stop-color:#8B5523;stop-opacity:1" />
    </linearGradient>
  </defs>
  
  <rect width="128" height="64" fill="url(#skyGradient)"/>
  
  <!-- Desert dunes -->
  <path d="M0 64 Q32 48 64 64 Q96 80 128 64 L128 128 L0 128 Z" fill="#8B5523"/>
  
  <!-- Oasis -->
  <circle cx="96" cy="80" r="12" fill="#355E3B"/>
  
  <!-- Palm tree -->
  <rect x="94" y="70" width="4" height="20" fill="#8B5523"/>
  <path d="M96 70 Q88 65 85 68 Q90 72 96 70" fill="#355E3B"/>
  <path d="M96 70 Q104 65 107 68 Q102 72 96 70" fill="#355E3B"/>
  
  <!-- Merchant figure (Amziane) -->
  <circle cx="48" cy="85" r="8" fill="#D2B48C"/>
  <rect x="44" y="93" width="8" height="20" fill="#2A3F7B"/>
  <path d="M44 85 Q48 80 52 85 Q52 88 48 88 Q44 88 44 85" fill="#2A3F7B"/>
  
  <!-- Staff -->
  <rect x="38" y="85" width="2" height="25" fill="#8B5523"/>
  
  <!-- Gold accent -->
  <circle cx="48" cy="100" r="2" fill="#D4A017"/>
  
  <!-- Title text -->
  <text x="64" y="25" font-family="serif" font-size="16" font-weight="bold" text-anchor="middle" fill="#D4A017">AZAMANE</text>
</svg>
