<svg width="320" height="180" viewBox="0 0 320 180" xmlns="http://www.w3.org/2000/svg">
  <!-- Character Creation Background - 320x180 -->
  
  <!-- Gradient sky background -->
  <defs>
    <linearGradient id="skyGradient" x1="0%" y1="0%" x2="0%" y2="100%">
      <stop offset="0%" style="stop-color:#2A3F7B;stop-opacity:1" />
      <stop offset="100%" style="stop-color:#355E3B;stop-opacity:0.8" />
    </linearGradient>
  </defs>
  
  <rect x="0" y="0" width="320" height="180" fill="url(#skyGradient)"/>
  
  <!-- Simple desert floor -->
  <rect x="0" y="140" width="320" height="40" fill="#8B5523"/>
  
  <!-- Subtle pattern overlay -->
  <rect x="0" y="140" width="320" height="40" fill="#D4A017" opacity="0.1"/>
  
  <!-- Character preview area highlight -->
  <rect x="30" y="30" width="80" height="100" fill="#D4A017" opacity="0.1" stroke="#D4A017" stroke-width="2"/>
  
  <!-- Decorative border elements -->
  <rect x="10" y="10" width="300" height="160" fill="none" stroke="#D4A017" stroke-width="1" opacity="0.3"/>
  
  <!-- Corner decorations -->
  <circle cx="20" cy="20" r="3" fill="#D4A017" opacity="0.5"/>
  <circle cx="300" cy="20" r="3" fill="#D4A017" opacity="0.5"/>
  <circle cx="20" cy="160" r="3" fill="#D4A017" opacity="0.5"/>
  <circle cx="300" cy="160" r="3" fill="#D4A017" opacity="0.5"/>
  
  <!-- Subtle Berber pattern -->
  <path d="M 250 50 L 260 40 L 270 50 L 260 60 Z" fill="#355E3B" opacity="0.3"/>
  <path d="M 250 80 L 260 70 L 270 80 L 260 90 Z" fill="#355E3B" opacity="0.3"/>
  <path d="M 250 110 L 260 100 L 270 110 L 260 120 Z" fill="#355E3B" opacity="0.3"/>
</svg>
