<svg width="320" height="180" viewBox="0 0 320 180" xmlns="http://www.w3.org/2000/svg">
  <!-- Main Game World Background - Desert Outpost 320x180 -->
  
  <!-- Sky -->
  <rect x="0" y="0" width="320" height="100" fill="#2A3F7B"/>
  
  <!-- Desert ground -->
  <rect x="0" y="100" width="320" height="80" fill="#8B5523"/>
  
  <!-- Sand dune variations -->
  <path d="M 0 120 Q 80 110 160 120 Q 240 130 320 120 L 320 180 L 0 180 Z" fill="#D4A017" opacity="0.2"/>
  
  <!-- OASIS AREA (Left side - Quest location) -->
  <ellipse cx="65" cy="155" rx="25" ry="10" fill="#355E3B"/>
  <!-- Palm tree -->
  <rect x="63" y="125" width="4" height="25" fill="#8B5523"/>
  <ellipse cx="65" cy="120" rx="8" ry="4" fill="#355E3B"/>
  <path d="M 65 120 Q 58 115 53 120 Q 58 125 65 120" fill="#355E3B"/>
  <path d="M 65 120 Q 72 115 77 120 Q 72 125 65 120" fill="#355E3B"/>
  <!-- Water -->
  <ellipse cx="65" cy="155" rx="15" ry="6" fill="#2A3F7B" opacity="0.6"/>
  
  <!-- TRADE STALL (Center-right - Quest location) -->
  <rect x="190" y="80" width="50" height="40" fill="#8B5523"/>
  <!-- Stall roof -->
  <path d="M 185 80 L 215 60 L 245 80 Z" fill="#355E3B"/>
  <!-- Support posts -->
  <rect x="195" y="80" width="3" height="40" fill="#8B5523"/>
  <rect x="232" y="80" width="3" height="40" fill="#8B5523"/>
  <!-- Goods on display -->
  <rect x="200" y="90" width="8" height="8" fill="#D4A017"/>
  <rect x="210" y="90" width="8" height="8" fill="#D4A017"/>
  <rect x="220" y="90" width="8" height="8" fill="#D4A017"/>
  <!-- Salt sacks -->
  <ellipse cx="205" cy="110" rx="4" ry="6" fill="#FFFFFF" opacity="0.8"/>
  <ellipse cx="215" cy="110" rx="4" ry="6" fill="#FFFFFF" opacity="0.8"/>
  
  <!-- AMZIANE'S TENT (Right side - Quest location) -->
  <path d="M 260 110 L 285 85 L 310 110 Z" fill="#2A3F7B"/>
  <rect x="270" y="110" width="30" height="35" fill="#8B5523"/>
  <!-- Tent entrance -->
  <path d="M 280 110 L 285 95 L 290 110 Z" fill="#355E3B"/>
  <!-- Ornate tent decorations -->
  <rect x="275" y="100" width="20" height="3" fill="#D4A017"/>
  <circle cx="285" cy="88" r="2" fill="#D4A017"/>
  
  <!-- Merchant's carpet outside tent -->
  <rect x="265" y="140" width="40" height="15" fill="#355E3B"/>
  <rect x="270" y="142" width="30" height="2" fill="#D4A017"/>
  <rect x="270" y="147" width="30" height="2" fill="#D4A017"/>
  <rect x="270" y="152" width="30" height="2" fill="#D4A017"/>
  
  <!-- BACKGROUND ELEMENTS -->
  <!-- Distant caravan -->
  <ellipse cx="30" cy="90" rx="8" ry="4" fill="#8B5523" opacity="0.4"/>
  <rect x="28" y="85" width="2" height="8" fill="#8B5523" opacity="0.4"/>
  <rect x="32" y="85" width="2" height="8" fill="#8B5523" opacity="0.4"/>
  
  <!-- Market goods scattered -->
  <rect x="120" y="140" width="6" height="6" fill="#D4A017"/>
  <rect x="130" y="145" width="4" height="8" fill="#8B5523"/>
  <circle cx="150" cy="150" r="3" fill="#355E3B"/>
  
  <!-- Footprints in sand -->
  <ellipse cx="100" cy="130" rx="2" ry="1" fill="#8B5523" opacity="0.3"/>
  <ellipse cx="105" cy="135" rx="2" ry="1" fill="#8B5523" opacity="0.3"/>
  <ellipse cx="110" cy="140" rx="2" ry="1" fill="#8B5523" opacity="0.3"/>
  
  <!-- Wind-blown sand -->
  <path d="M 50 120 Q 70 118 90 120" stroke="#D4A017" stroke-width="1" fill="none" opacity="0.3"/>
  <path d="M 150 125 Q 170 123 190 125" stroke="#D4A017" stroke-width="1" fill="none" opacity="0.3"/>
  
  <!-- Sun in sky -->
  <circle cx="280" cy="30" r="12" fill="#D4A017" opacity="0.8"/>
  <path d="M 280 10 L 280 20" stroke="#D4A017" stroke-width="2"/>
  <path d="M 280 40 L 280 50" stroke="#D4A017" stroke-width="2"/>
  <path d="M 260 30 L 270 30" stroke="#D4A017" stroke-width="2"/>
  <path d="M 290 30 L 300 30" stroke="#D4A017" stroke-width="2"/>
</svg>
