<svg width="320" height="180" viewBox="0 0 320 180" xmlns="http://www.w3.org/2000/svg">
  <!-- Welcome Screen Background - Desert Outpost 320x180 -->
  
  <!-- Sky -->
  <rect x="0" y="0" width="320" height="120" fill="#2A3F7B"/>
  
  <!-- Desert sand dunes -->
  <path d="M 0 120 Q 80 100 160 120 Q 240 140 320 120 L 320 180 L 0 180 Z" fill="#8B5523"/>
  <path d="M 0 140 Q 60 130 120 140 Q 180 150 240 140 Q 280 135 320 140 L 320 180 L 0 180 Z" fill="#D4A017" opacity="0.3"/>
  
  <!-- Distant mountains -->
  <path d="M 0 100 L 50 80 L 100 100 L 150 85 L 200 100 L 250 90 L 300 100 L 320 95 L 320 120 L 0 120 Z" fill="#355E3B" opacity="0.4"/>
  
  <!-- Main tent structure -->
  <path d="M 140 100 L 160 70 L 180 100 Z" fill="#2A3F7B"/>
  <rect x="145" y="100" width="30" height="40" fill="#8B5523"/>
  
  <!-- Tent entrance -->
  <path d="M 155 100 L 160 85 L 165 100 Z" fill="#355E3B"/>
  
  <!-- Smaller tents -->
  <path d="M 80 110 L 95 90 L 110 110 Z" fill="#355E3B"/>
  <path d="M 220 115 L 235 95 L 250 115 Z" fill="#2A3F7B"/>
  
  <!-- Oasis palm trees -->
  <rect x="50" y="90" width="4" height="30" fill="#8B5523"/>
  <ellipse cx="52" cy="85" rx="8" ry="4" fill="#355E3B"/>
  <path d="M 52 85 Q 45 80 40 85 Q 45 90 52 85" fill="#355E3B"/>
  <path d="M 52 85 Q 59 80 64 85 Q 59 90 52 85" fill="#355E3B"/>
  
  <!-- Trade goods/barrels -->
  <rect x="200" y="125" width="12" height="15" fill="#8B5523"/>
  <rect x="215" y="125" width="12" height="15" fill="#8B5523"/>
  <ellipse cx="206" cy="125" rx="6" ry="3" fill="#D4A017"/>
  <ellipse cx="221" cy="125" rx="6" ry="3" fill="#D4A017"/>
  
  <!-- Camel silhouette -->
  <ellipse cx="280" cy="115" rx="15" ry="8" fill="#8B5523" opacity="0.6"/>
  <rect x="275" y="105" width="3" height="15" fill="#8B5523" opacity="0.6"/>
  <rect x="285" y="105" width="3" height="15" fill="#8B5523" opacity="0.6"/>
  <ellipse cx="290" cy="100" rx="4" ry="6" fill="#8B5523" opacity="0.6"/>
  
  <!-- Djinn glow effect (subtle) -->
  <circle cx="160" cy="60" r="20" fill="#D4A017" opacity="0.1"/>
  <circle cx="160" cy="60" r="15" fill="#D4A017" opacity="0.15"/>
  <circle cx="160" cy="60" r="10" fill="#D4A017" opacity="0.2"/>
  
  <!-- Stars in sky -->
  <circle cx="50" cy="30" r="1" fill="#D4A017"/>
  <circle cx="120" cy="20" r="1" fill="#D4A017"/>
  <circle cx="200" cy="35" r="1" fill="#D4A017"/>
  <circle cx="270" cy="25" r="1" fill="#D4A017"/>
  
  <!-- Sand particles -->
  <circle cx="100" cy="130" r="1" fill="#D4A017" opacity="0.5"/>
  <circle cx="180" cy="135" r="1" fill="#D4A017" opacity="0.5"/>
  <circle cx="250" cy="128" r="1" fill="#D4A017" opacity="0.5"/>
</svg>
