<svg width="320" height="180" viewBox="0 0 320 180" xmlns="http://www.w3.org/2000/svg">
  <!-- Narrative Introduction Background - 320x180 -->
  
  <!-- Desert sunset sky -->
  <defs>
    <linearGradient id="sunsetGradient" x1="0%" y1="0%" x2="0%" y2="100%">
      <stop offset="0%" style="stop-color:#D4A017;stop-opacity:0.6" />
      <stop offset="30%" style="stop-color:#2A3F7B;stop-opacity:1" />
      <stop offset="100%" style="stop-color:#8B5523;stop-opacity:1" />
    </linearGradient>
  </defs>
  
  <rect x="0" y="0" width="320" height="180" fill="url(#sunsetGradient)"/>
  
  <!-- Parchment/scroll area for text -->
  <rect x="20" y="20" width="280" height="140" fill="#D4A017" opacity="0.9" rx="10" ry="10"/>
  <rect x="25" y="25" width="270" height="130" fill="#8B5523" opacity="0.1" rx="8" ry="8"/>
  
  <!-- Scroll decorative edges -->
  <rect x="15" y="20" width="10" height="140" fill="#8B5523" rx="5" ry="5"/>
  <rect x="295" y="20" width="10" height="140" fill="#8B5523" rx="5" ry="5"/>
  
  <!-- Ancient script decorations on scroll edges -->
  <circle cx="20" cy="40" r="2" fill="#2A3F7B" opacity="0.5"/>
  <circle cx="20" cy="60" r="2" fill="#2A3F7B" opacity="0.5"/>
  <circle cx="20" cy="80" r="2" fill="#2A3F7B" opacity="0.5"/>
  <circle cx="20" cy="100" r="2" fill="#2A3F7B" opacity="0.5"/>
  <circle cx="20" cy="120" r="2" fill="#2A3F7B" opacity="0.5"/>
  <circle cx="20" cy="140" r="2" fill="#2A3F7B" opacity="0.5"/>
  
  <circle cx="300" cy="40" r="2" fill="#2A3F7B" opacity="0.5"/>
  <circle cx="300" cy="60" r="2" fill="#2A3F7B" opacity="0.5"/>
  <circle cx="300" cy="80" r="2" fill="#2A3F7B" opacity="0.5"/>
  <circle cx="300" cy="100" r="2" fill="#2A3F7B" opacity="0.5"/>
  <circle cx="300" cy="120" r="2" fill="#2A3F7B" opacity="0.5"/>
  <circle cx="300" cy="140" r="2" fill="#2A3F7B" opacity="0.5"/>
  
  <!-- Berber geometric pattern in corners -->
  <path d="M 30 30 L 40 30 L 35 40 Z" fill="#355E3B" opacity="0.4"/>
  <path d="M 280 30 L 290 30 L 285 40 Z" fill="#355E3B" opacity="0.4"/>
  <path d="M 30 150 L 40 150 L 35 140 Z" fill="#355E3B" opacity="0.4"/>
  <path d="M 280 150 L 290 150 L 285 140 Z" fill="#355E3B" opacity="0.4"/>
  
  <!-- Subtle desert silhouette at bottom -->
  <path d="M 0 160 Q 80 150 160 160 Q 240 170 320 160 L 320 180 L 0 180 Z" fill="#8B5523" opacity="0.3"/>
  
  <!-- Distant caravan silhouette -->
  <ellipse cx="50" cy="165" rx="6" ry="3" fill="#2A3F7B" opacity="0.2"/>
  <ellipse cx="270" cy="168" rx="8" ry="4" fill="#2A3F7B" opacity="0.2"/>
</svg>
