<?xml version="1.0" encoding="UTF-8"?>
<svg width="32" height="32" viewBox="0 0 32 32" xmlns="http://www.w3.org/2000/svg">
  <!-- Female Player - Green Djellaba -->
  
  <!-- Background (transparent) -->
  <rect width="32" height="32" fill="none"/>
  
  <!-- Body - Green Djellaba -->
  <path d="M7 16 L7 30 L25 30 L25 16 L21 14 L11 14 Z" fill="#355E3B" stroke="#2a4a2e" stroke-width="0.5"/>
  
  <!-- Arms -->
  <ellipse cx="5" cy="18" rx="2" ry="4" fill="#355E3B"/>
  <ellipse cx="27" cy="18" rx="2" ry="4" fill="#355E3B"/>
  
  <!-- Hands -->
  <circle cx="5" cy="22" r="1.5" fill="#D2B48C"/>
  <circle cx="27" cy="22" r="1.5" fill="#D2B48C"/>
  
  <!-- Head -->
  <circle cx="16" cy="10" r="6" fill="#D2B48C"/>
  
  <!-- Hair -->
  <path d="M12 6 Q16 4 20 6 Q20 8 16 8 Q12 8 12 6" fill="#654321"/>
  
  <!-- Head covering - Green -->
  <path d="M10 6 Q16 2 22 6 Q22 9 16 9 Q10 9 10 6" fill="#355E3B"/>
  
  <!-- Decorative pattern -->
  <circle cx="13" cy="7" r="0.5" fill="#D4A017"/>
  <circle cx="16" cy="6.5" r="0.5" fill="#D4A017"/>
  <circle cx="19" cy="7" r="0.5" fill="#D4A017"/>
  
  <!-- Face -->
  <circle cx="13" cy="9" r="0.9" fill="white"/>
  <circle cx="19" cy="9" r="0.9" fill="white"/>
  <circle cx="13" cy="9" r="0.4" fill="black"/>
  <circle cx="19" cy="9" r="0.4" fill="black"/>
  
  <!-- Nose -->
  <path d="M16 10 L15.5 11.5 L16.5 11.5 Z" fill="#C19A6B"/>
  
  <!-- Mouth -->
  <path d="M14 12 Q16 13.5 18 12" stroke="#8B4513" stroke-width="0.5" fill="none"/>
  
  <!-- Feet -->
  <ellipse cx="12" cy="30" rx="1.5" ry="1" fill="#654321"/>
  <ellipse cx="20" cy="30" rx="1.5" ry="1" fill="#654321"/>
  
  <!-- Gold trim -->
  <path d="M7 16 L25 16" stroke="#D4A017" stroke-width="0.5"/>
  <path d="M7 30 L25 30" stroke="#D4A017" stroke-width="0.5"/>
  <path d="M11 20 L21 20" stroke="#D4A017" stroke-width="0.3"/>
</svg>
