<?xml version="1.0" encoding="UTF-8"?>
<svg width="32" height="32" viewBox="0 0 32 32" xmlns="http://www.w3.org/2000/svg">
  <!-- Female Player - Blue Tunic -->
  
  <!-- Background (transparent) -->
  <rect width="32" height="32" fill="none"/>
  
  <!-- Body - Blue Tunic (shorter) -->
  <path d="M8 16 L8 25 L24 25 L24 16 L20 14 L12 14 Z" fill="#2A3F7B" stroke="#1a2a5a" stroke-width="0.5"/>
  
  <!-- Legs/Pants -->
  <rect x="10" y="25" width="5" height="5" fill="#8B5523"/>
  <rect x="17" y="25" width="5" height="5" fill="#8B5523"/>
  
  <!-- Arms -->
  <ellipse cx="6" cy="18" rx="2" ry="3" fill="#2A3F7B"/>
  <ellipse cx="26" cy="18" rx="2" ry="3" fill="#2A3F7B"/>
  
  <!-- Hands -->
  <circle cx="6" cy="21" r="1.5" fill="#D2B48C"/>
  <circle cx="26" cy="21" r="1.5" fill="#D2B48C"/>
  
  <!-- Head -->
  <circle cx="16" cy="10" r="6" fill="#D2B48C"/>
  
  <!-- Hair (more visible with tunic style) -->
  <path d="M11 6 Q16 3 21 6 Q21 9 16 9 Q11 9 11 6" fill="#654321"/>
  
  <!-- Light head covering -->
  <path d="M12 6 Q16 4 20 6 Q20 7.5 16 7.5 Q12 7.5 12 6" fill="#D4A017" opacity="0.7"/>
  
  <!-- Face -->
  <circle cx="13" cy="9" r="0.9" fill="white"/>
  <circle cx="19" cy="9" r="0.9" fill="white"/>
  <circle cx="13" cy="9" r="0.4" fill="black"/>
  <circle cx="19" cy="9" r="0.4" fill="black"/>
  
  <!-- Nose -->
  <path d="M16 10 L15.5 11.5 L16.5 11.5 Z" fill="#C19A6B"/>
  
  <!-- Mouth -->
  <path d="M14 12 Q16 13.5 18 12" stroke="#8B4513" stroke-width="0.5" fill="none"/>
  
  <!-- Feet -->
  <ellipse cx="12.5" cy="30" rx="1.5" ry="1" fill="#654321"/>
  <ellipse cx="19.5" cy="30" rx="1.5" ry="1" fill="#654321"/>
  
  <!-- Decorative elements -->
  <path d="M8 16 L24 16" stroke="#D4A017" stroke-width="0.5"/>
  <path d="M8 25 L24 25" stroke="#D4A017" stroke-width="0.5"/>
  
  <!-- Belt -->
  <rect x="12" y="20" width="8" height="1" fill="#8B5523"/>
  <circle cx="16" cy="20.5" r="0.5" fill="#D4A017"/>
</svg>
